<?xml version="1.0" encoding="UTF-8"?>
<svg id="Layer_2" data-name="Layer 2" xmlns="http://www.w3.org/2000/svg" viewBox="0 0 444.44 208.3">
  <defs>
    <style>
      .cls-1 {
        fill: #fff;
        stroke-width: 0px;
      }
    </style>
  </defs>
  <g id="Layer_1-2" data-name="Layer 1">
    <g>
      <path class="cls-1" d="M444.44,208.3h-28.99l-24.32-26.78c-9.06-9.73-18.09-19.39-27.13-29.09-14.07-15.12-28.2-30.43-42.39-45.92h-28.57v-21.22h28.57l60.91-65.53h29.19l-70.81,76.15,83,90.1,20.55,22.29Z"/>
      <path class="cls-1" d="M280.62,17.77v142.67c0,6.39-2.78,12.57-7.86,16.44-.03.02-.06.04-.09.06-4.29,3.3-8.69,5.44-13.15,6.4-1.84.4-3.67.6-5.53.6-6.43,0-12.68-2.36-18.74-7-6.06-4.64-11.29-11.59-15.71-20.92l-44.26-109.73-43.61,109.73c-4.42,9.33-9.7,16.28-15.84,20.92-6.08,4.64-12.41,7-18.91,7s-12.73-2.36-18.79-7c-6.06-4.64-11.29-11.59-15.71-20.92-10.62-26.11-21.07-52-31.32-77.79C22.96,57.81,14.74,37.26,6.45,16.56,4.32,11.22,2.16,5.86,0,.47c1.89-.3,3.72-.47,5.44-.47h17.15l6.85,16.56h-.5c1.29,2.46,2.53,4.99,3.6,7.6l50.01,123.71c9.58,19.04,19.31,19.04,29.21,0L163.77,17.95v-.17h23.26v.17l52.02,129.91c6.07,11.52,12.13,15.95,18.2,13.31,1.44-.63,2.28-2.14,2.28-3.71V17.77h21.1Z"/>
      <rect class="cls-1" x="163.77" y="17.5" width="23.26" height=".27"/>
    </g>
  </g>
</svg>