<?xml version="1.0" encoding="UTF-8"?>
<svg id="Layer_2" data-name="Layer 2" xmlns="http://www.w3.org/2000/svg" viewBox="0 0 504 520.37">
  <defs>
    <style>
      .cls-1 {
        fill: #e6ded3;
        stroke-width: 0px;
      }
    </style>
  </defs>
  <g id="Layer_1-2" data-name="Layer 1">
    <g>
      <g>
        <path class="cls-1" d="M394.13,326.8h-18.54l-15.56-17.13c-5.79-6.22-11.57-12.4-17.35-18.61-9-9.67-18.03-19.46-27.11-29.37h-18.27v-13.57h18.27l38.96-41.91h18.67l-45.29,48.71,53.09,57.63,13.14,14.26Z"/>
        <path class="cls-1" d="M289.35,204.94v91.25c0,4.08-1.78,8.04-5.03,10.52-.02.01-.04.03-.05.04-2.75,2.11-5.56,3.48-8.41,4.1-1.17.25-2.35.38-3.54.38-4.11,0-8.11-1.51-11.99-4.48-3.87-2.97-7.22-7.41-10.05-13.38l-28.31-70.18-27.89,70.18c-2.83,5.97-6.21,10.41-10.13,13.38-3.89,2.97-7.94,4.48-12.1,4.48s-8.14-1.51-12.02-4.48c-3.87-2.97-7.22-7.41-10.05-13.38-6.79-16.7-13.48-33.26-20.03-49.75-5.21-13.07-10.46-26.21-15.76-39.45-1.37-3.41-2.75-6.84-4.13-10.29,1.21-.19,2.38-.3,3.48-.3h10.97l4.38,10.59h-.32c.83,1.57,1.62,3.19,2.3,4.86l31.99,79.12c6.13,12.18,12.35,12.18,18.69,0l33.26-83.09v-.11h14.88v.11l33.27,83.09c3.88,7.37,7.76,10.2,11.64,8.51.92-.4,1.46-1.37,1.46-2.37v-89.34h13.49Z"/>
        <rect class="cls-1" x="214.61" y="204.76" width="14.88" height=".17"/>
      </g>
      <g>
        <path class="cls-1" d="M4.98,191.36l22.67-.99c3.43-.44,3.95-1.92,1.58-4.46l-17.03-14.96-.07-.02,1.26-3.55.07.02,22.65-.93c3.4-.5,3.93-2.01,1.6-4.53-2.89-2.52-5.74-5.01-8.57-7.48-2.83-2.47-5.66-4.99-8.5-7.57l1.23-3.48,18.15,16c1.19,1.16,1.97,2.32,2.36,3.5.38,1.17.4,2.25.05,3.23-.34.98-1.04,1.81-2.07,2.48-1.04.67-2.39,1.1-4.04,1.27l-19.15.83,14.41,12.59c1.18,1.18,1.96,2.36,2.34,3.55.38,1.19.39,2.28.04,3.27-.35.99-1.05,1.82-2.08,2.49-1.03.67-2.38,1.1-4.04,1.27-1.83.09-3.77.17-5.82.26-2.05.09-4.12.17-6.21.26-2.1.08-4.17.17-6.23.25-2.06.08-4,.16-5.82.22l1.25-3.51Z"/>
        <path class="cls-1" d="M46.15,105.52c1.11-1.56,2.43-2.82,3.96-3.78,1.54-.96,3.17-1.59,4.9-1.88,1.73-.32,3.46-.31,5.19.04,1.73.35,3.36,1.07,4.87,2.14,1.52,1.08,2.73,2.38,3.64,3.91.91,1.53,1.48,3.15,1.72,4.88.27,1.72.22,3.47-.17,5.25-.39,1.78-1.13,3.45-2.24,5.01l-2.14,3.01c-1.12,1.58-2.45,2.84-4,3.78-1.55.94-3.18,1.57-4.91,1.9-1.69.32-3.41.3-5.15-.05-1.74-.36-3.37-1.08-4.89-2.16-1.52-1.08-2.73-2.38-3.63-3.9-.9-1.52-1.49-3.14-1.76-4.86-.28-1.75-.22-3.51.18-5.26.4-1.76,1.16-3.42,2.28-5l2.14-3.01ZM46.77,110.47c-.83,1.17-1.39,2.41-1.68,3.72-.29,1.32-.34,2.62-.14,3.9.2,1.28.63,2.51,1.3,3.67.67,1.16,1.57,2.15,2.69,2.95,1.13.8,2.35,1.33,3.67,1.57,1.32.25,2.61.25,3.89.02,1.28-.23,2.49-.7,3.64-1.41,1.15-.71,2.13-1.64,2.97-2.81l2.14-3.01c.83-1.17,1.39-2.41,1.68-3.72.29-1.32.34-2.62.14-3.9-.21-1.26-.65-2.48-1.32-3.64-.67-1.16-1.57-2.14-2.69-2.95-1.13-.8-2.35-1.33-3.67-1.57-1.31-.25-2.61-.26-3.87-.05-1.28.23-2.49.7-3.64,1.41-1.15.71-2.14,1.64-2.97,2.81l-2.13,3.01Z"/>
        <path class="cls-1" d="M74.34,72.34l20.24,10.25c.81.3,1.58.39,2.3.26.72-.13,1.32-.41,1.82-.85.49-.44.83-1,1.04-1.69.2-.69.2-1.46,0-2.3l-7.76-21.47,2.79-2.48,8.21,22.79c.47,1.6.51,3.08.11,4.44-.39,1.36-1.07,2.47-2.04,3.34-.97.87-2.16,1.42-3.55,1.65-1.39.23-2.86.03-4.4-.62l-21.58-10.78,2.84-2.53Z"/>
        <path class="cls-1" d="M138.75,30.35l-16.09,8.98,3.63,6.51,17.88-9.97-.45,4.19-15.75,8.78,4.42,7.92,17.88-9.97-.42,4.26-18.79,10.48-13.11-23.52c.86-.48,1.85-1.03,3-1.65,1.14-.63,2.35-1.29,3.63-2,1.27-.71,2.58-1.44,3.93-2.19,1.35-.75,2.65-1.49,3.92-2.21,1.27-.72,2.47-1.4,3.61-2.03,1.14-.63,2.15-1.2,3.02-1.68l-.3,4.11Z"/>
        <path class="cls-1" d="M170.05,18.87l6.3,20.86-3.33,1.01-7.79-25.77,3.33-1.01,25.63,15.03-6.3-20.87,3.33-1.01,7.79,25.77-3.33,1.01-25.63-15.03Z"/>
        <path class="cls-1" d="M271.99,27.9c-.92-1.1-1.8-2.21-2.64-3.32-.84-1.11-1.66-2.23-2.48-3.35-.81-1.12-1.64-2.24-2.47-3.36-.84-1.12-1.72-2.25-2.64-3.38l-4.98-.27-.7,12.85-3.47-.19,1.45-26.89,3.12.17.36.02-.58,10.6,4.98.27,10.42-10.06,4.72.26-12.39,11.97,11.11,14.89-3.83-.21Z"/>
        <path class="cls-1" d="M308.46,6.5l-3.47,13.03c-.36,1.32-.44,2.62-.26,3.9.18,1.29.59,2.48,1.23,3.57.63,1.09,1.46,2.04,2.47,2.84,1.01.81,2.17,1.39,3.49,1.75,1.29.35,2.59.44,3.88.25,1.29-.18,2.48-.58,3.58-1.2,1.1-.62,2.05-1.44,2.86-2.45.81-1.02,1.39-2.18,1.75-3.5l3.55-13.04,3.36.91-3.55,13.04c-.48,1.78-1.28,3.35-2.38,4.72-1.1,1.37-2.39,2.49-3.87,3.35-1.47.86-3.08,1.42-4.83,1.68-1.74.26-3.49.15-5.25-.33-1.78-.48-3.35-1.28-4.73-2.38-1.38-1.1-2.48-2.4-3.33-3.9-.85-1.49-1.4-3.11-1.66-4.85-.26-1.74-.15-3.5.34-5.28l3.54-13.01,3.29.89Z"/>
        <path class="cls-1" d="M363.05,56.23l-17.92-9.12,12.21-23.99,3.16,1.61-10.65,20.93,14.76,7.51-1.56,3.07Z"/>
        <path class="cls-1" d="M392.18,42.4l21.74,16.25-2.06,2.76-9.51-7.11-14.06,18.81-2.79-2.08,14.06-18.81-9.49-7.01,2.1-2.81Z"/>
        <path class="cls-1" d="M437.09,80.88l-10.17,8.85c-1.03.89-1.83,1.92-2.41,3.09-.57,1.17-.9,2.38-.98,3.64-.08,1.26.06,2.5.45,3.74.38,1.23,1.02,2.37,1.91,3.4.87,1.02,1.89,1.81,3.07,2.38,1.17.57,2.39.91,3.64,1.01,1.26.1,2.5-.04,3.75-.43,1.24-.39,2.38-1.03,3.41-1.92l10.25-8.81,2.27,2.64-10.25,8.81c-1.39,1.2-2.93,2.06-4.62,2.58-1.68.52-3.38.72-5.08.61-1.7-.11-3.35-.55-4.94-1.31-1.59-.77-2.98-1.84-4.16-3.22-1.2-1.4-2.06-2.94-2.58-4.62-.52-1.68-.71-3.38-.57-5.09.14-1.71.59-3.36,1.35-4.95.76-1.59,1.84-2.98,3.24-4.18l10.22-8.79,2.22,2.58Z"/>
        <path class="cls-1" d="M468.68,122.42c.69,1.29,1.42,2.67,2.2,4.12.78,1.45,1.54,2.88,2.31,4.29.77,1.41,1.48,2.73,2.14,3.96.66,1.23,1.22,2.28,1.68,3.15.82,1.54,1.19,3.03,1.12,4.48-.08,1.45-.46,2.76-1.15,3.93-.69,1.17-1.61,2.14-2.77,2.92-1.16.78-2.4,1.28-3.74,1.49-1.34.21-2.69.08-4.07-.39-1.38-.47-2.62-1.37-3.74-2.7l-4.32,12.47-2.21-4.22c1.38-4.01,2.8-8.08,4.26-12.19l-5.37-10.06-8.41,4.49-1.64-3.07,23.72-12.67ZM473.97,139.56c-.38-.72-.86-1.61-1.44-2.66-.58-1.06-1.18-2.17-1.79-3.33-.62-1.16-1.24-2.31-1.86-3.44-.62-1.13-1.16-2.13-1.62-3l-9.2,4.91,6.66,12.46c.55,1.03,1.24,1.77,2.06,2.21.82.44,1.67.65,2.55.63.88-.02,1.72-.25,2.51-.67.79-.42,1.44-.99,1.95-1.71.51-.72.81-1.54.9-2.47.09-.93-.14-1.91-.7-2.94Z"/>
        <path class="cls-1" d="M494.69,195.08l-5-17.74-7.18,2.02,5.55,19.7-3.97-1.41-4.89-17.36-8.73,2.46,5.55,19.7-4.04-1.39-5.84-20.7,25.92-7.3c.26.94.57,2.04.91,3.3.34,1.26.71,2.59,1.11,3.99.4,1.4.8,2.85,1.22,4.33.42,1.48.83,2.93,1.24,4.33.41,1.4.79,2.73,1.14,3.98.35,1.25.67,2.36.94,3.33l-3.93-1.24Z"/>
      </g>
      <g>
        <path class="cls-1" d="M497.37,329.01l-22.67.99c-3.43.44-3.95,1.92-1.58,4.46l17.03,14.96.07.02-1.26,3.55-.07-.02-22.65.93c-3.4.5-3.93,2.01-1.6,4.53,2.89,2.52,5.74,5.01,8.57,7.48,2.83,2.47,5.66,4.99,8.5,7.57l-1.23,3.48-18.15-16c-1.19-1.16-1.97-2.32-2.36-3.5-.38-1.17-.4-2.25-.05-3.23.34-.98,1.04-1.81,2.07-2.48,1.04-.67,2.39-1.1,4.04-1.27l19.15-.83-14.41-12.59c-1.18-1.18-1.96-2.36-2.34-3.55-.38-1.19-.39-2.28-.04-3.27.35-.99,1.05-1.82,2.08-2.49,1.03-.67,2.38-1.1,4.04-1.27,1.83-.09,3.77-.17,5.82-.26,2.05-.09,4.12-.17,6.21-.26,2.1-.08,4.17-.17,6.23-.25,2.06-.08,4-.16,5.82-.22l-1.25,3.51Z"/>
        <path class="cls-1" d="M456.2,414.85c-1.11,1.56-2.43,2.82-3.96,3.78-1.54.96-3.17,1.59-4.9,1.88-1.73.32-3.46.31-5.19-.04-1.73-.35-3.36-1.07-4.87-2.14-1.52-1.08-2.73-2.38-3.64-3.91-.91-1.53-1.48-3.15-1.72-4.88-.27-1.72-.22-3.47.17-5.25.39-1.78,1.13-3.45,2.24-5.01l2.14-3.01c1.12-1.58,2.45-2.84,4-3.78,1.55-.94,3.18-1.57,4.91-1.9,1.69-.32,3.41-.3,5.15.05,1.74.36,3.37,1.08,4.89,2.16,1.52,1.08,2.73,2.38,3.63,3.9.9,1.52,1.49,3.14,1.76,4.86.28,1.75.22,3.51-.18,5.26-.4,1.76-1.16,3.42-2.28,5l-2.14,3.01ZM455.58,409.9c.83-1.17,1.39-2.41,1.68-3.72.29-1.32.34-2.62.14-3.9-.2-1.28-.63-2.51-1.3-3.67-.67-1.16-1.57-2.15-2.69-2.95-1.13-.8-2.35-1.33-3.67-1.57-1.32-.25-2.61-.25-3.89-.02-1.28.23-2.49.7-3.64,1.41-1.15.71-2.13,1.64-2.97,2.81l-2.14,3.01c-.83,1.17-1.39,2.41-1.68,3.72-.29,1.32-.34,2.62-.14,3.9.21,1.26.65,2.48,1.32,3.64.67,1.16,1.57,2.14,2.69,2.95,1.13.8,2.35,1.33,3.67,1.57,1.31.25,2.61.26,3.87.05,1.28-.23,2.49-.7,3.64-1.41,1.15-.71,2.14-1.64,2.97-2.81l2.13-3.01Z"/>
        <path class="cls-1" d="M428.01,448.03l-20.24-10.25c-.81-.3-1.58-.39-2.3-.26-.72.13-1.32.41-1.82.85-.49.44-.83,1-1.04,1.69-.2.69-.2,1.46,0,2.3l7.76,21.47-2.79,2.48-8.21-22.79c-.47-1.6-.51-3.08-.11-4.44.39-1.36,1.07-2.47,2.04-3.34.97-.87,2.16-1.42,3.55-1.65,1.39-.23,2.86-.03,4.4.62l21.58,10.78-2.84,2.53Z"/>
        <path class="cls-1" d="M363.6,490.02l16.09-8.98-3.63-6.51-17.88,9.97.45-4.19,15.75-8.78-4.42-7.92-17.88,9.97.42-4.26,18.79-10.48,13.11,23.52c-.86.48-1.85,1.03-3,1.65-1.14.63-2.35,1.29-3.63,2-1.27.71-2.58,1.44-3.93,2.19-1.35.75-2.65,1.49-3.92,2.21-1.27.72-2.47,1.4-3.61,2.03-1.14.63-2.15,1.2-3.02,1.68l.3-4.11Z"/>
        <path class="cls-1" d="M332.29,501.5l-6.3-20.86,3.33-1.01,7.79,25.77-3.33,1.01-25.63-15.03,6.3,20.87-3.33,1.01-7.79-25.77,3.33-1.01,25.63,15.03Z"/>
        <path class="cls-1" d="M230.36,492.47c.92,1.1,1.8,2.21,2.64,3.32.84,1.11,1.66,2.23,2.48,3.35.81,1.12,1.64,2.24,2.47,3.36.84,1.12,1.72,2.25,2.64,3.38l4.98.27.7-12.85,3.47.19-1.45,26.89-3.12-.17-.36-.02.58-10.6-4.98-.27-10.42,10.06-4.72-.26,12.39-11.97-11.11-14.89,3.83.21Z"/>
        <path class="cls-1" d="M193.89,513.87l3.47-13.03c.36-1.32.44-2.62.26-3.9-.18-1.29-.59-2.48-1.23-3.57-.63-1.09-1.46-2.04-2.47-2.84-1.01-.81-2.17-1.39-3.49-1.75-1.29-.35-2.59-.44-3.88-.25-1.29.18-2.48.58-3.58,1.2-1.1.62-2.05,1.44-2.86,2.45-.81,1.02-1.39,2.18-1.75,3.5l-3.55,13.04-3.36-.91,3.55-13.04c.48-1.78,1.28-3.35,2.38-4.72,1.1-1.37,2.39-2.49,3.87-3.35,1.47-.86,3.08-1.42,4.83-1.68,1.74-.26,3.49-.15,5.25.33,1.78.48,3.35,1.28,4.73,2.38,1.38,1.1,2.48,2.4,3.33,3.9.85,1.49,1.4,3.11,1.66,4.85s.15,3.5-.34,5.28l-3.54,13.01-3.29-.89Z"/>
        <path class="cls-1" d="M139.3,464.14l17.92,9.12-12.21,23.99-3.16-1.61,10.65-20.93-14.76-7.51,1.56-3.07Z"/>
        <path class="cls-1" d="M110.17,477.97l-21.74-16.25,2.06-2.76,9.51,7.11,14.06-18.81,2.79,2.08-14.06,18.81,9.49,7.01-2.1,2.81Z"/>
        <path class="cls-1" d="M65.25,439.49l10.17-8.85c1.03-.89,1.83-1.92,2.41-3.09.57-1.17.9-2.38.98-3.64.08-1.26-.06-2.5-.45-3.74-.38-1.23-1.02-2.37-1.91-3.4-.87-1.02-1.89-1.81-3.07-2.38-1.17-.57-2.39-.91-3.64-1.01-1.26-.1-2.5.04-3.75.43-1.24.39-2.38,1.03-3.41,1.92l-10.25,8.81-2.27-2.64,10.25-8.81c1.39-1.2,2.93-2.06,4.62-2.58,1.68-.52,3.38-.72,5.08-.61,1.7.11,3.35.55,4.94,1.31,1.59.77,2.98,1.84,4.16,3.22,1.2,1.4,2.06,2.94,2.58,4.62.52,1.68.71,3.38.57,5.09-.14,1.71-.59,3.36-1.35,4.95-.76,1.59-1.84,2.98-3.24,4.18l-10.22,8.79-2.22-2.58Z"/>
        <path class="cls-1" d="M33.67,397.95c-.69-1.29-1.42-2.67-2.2-4.12-.78-1.45-1.54-2.88-2.31-4.29-.77-1.41-1.48-2.73-2.14-3.96-.66-1.23-1.22-2.28-1.68-3.15-.82-1.54-1.19-3.03-1.12-4.48.08-1.45.46-2.76,1.15-3.93.69-1.17,1.61-2.14,2.77-2.92,1.16-.78,2.4-1.28,3.74-1.49,1.34-.21,2.69-.08,4.07.39,1.38.47,2.62,1.37,3.74,2.7l4.32-12.47,2.21,4.22c-1.38,4.01-2.8,8.08-4.26,12.19l5.37,10.06,8.41-4.49,1.64,3.07-23.72,12.67ZM28.38,380.81c.38.72.86,1.61,1.44,2.66.58,1.06,1.18,2.17,1.79,3.33.62,1.16,1.24,2.31,1.86,3.44.62,1.13,1.16,2.13,1.62,3l9.2-4.91-6.66-12.46c-.55-1.03-1.24-1.77-2.06-2.21-.82-.44-1.67-.65-2.55-.63-.88.02-1.72.25-2.51.67-.79.42-1.44.99-1.95,1.71-.51.72-.81,1.54-.9,2.47-.09.93.14,1.91.7,2.94Z"/>
        <path class="cls-1" d="M7.66,325.29l5,17.74,7.18-2.02-5.55-19.7,3.97,1.41,4.89,17.36,8.73-2.46-5.55-19.7,4.04,1.39,5.84,20.7-25.92,7.3c-.26-.94-.57-2.04-.91-3.3-.34-1.26-.71-2.59-1.11-3.99-.4-1.4-.8-2.85-1.22-4.33-.42-1.48-.83-2.93-1.24-4.33-.41-1.4-.79-2.73-1.14-3.98-.35-1.25-.67-2.36-.94-3.33l3.93,1.24Z"/>
      </g>
      <rect class="cls-1" x="3.75" y="247.29" width="18.09" height="18.09" transform="translate(203.1 428.55) rotate(135)"/>
      <rect class="cls-1" x="482.16" y="247.29" width="18.09" height="18.09" transform="translate(1019.8 90.26) rotate(135)"/>
    </g>
  </g>
</svg>