<?xml version="1.0" encoding="UTF-8"?>
<svg id="Layer_2" data-name="Layer 2" xmlns="http://www.w3.org/2000/svg" viewBox="0 0 497.35 307.38">
  <defs>
    <style>
      .cls-1 {
        stroke-width: 0px;
      }
    </style>
  </defs>
  <g id="Layer_1-2" data-name="Layer 1">
    <g>
      <g>
        <path class="cls-1" d="M292.24,307.38h-6.3l-5.29-5.83c-1.97-2.12-3.94-4.22-5.9-6.33-3.06-3.29-6.13-6.62-9.22-9.99h-6.69v17.29h-4.57s-.1-36.16-.1-36.16h4.67v14.26h6.69l13.25-14.26h6.35l-15.41,16.57,18.06,19.6,4.47,4.85Z"/>
        <path class="cls-1" d="M319.54,266.36v18.15c0,1.83-.35,3.55-1.03,5.15-.7,1.61-1.64,3.01-2.85,4.19-1.2,1.19-2.62,2.13-4.22,2.81-1.61.69-3.31,1.03-5.12,1.03s-3.55-.34-5.14-1.03c-1.59-.69-2.99-1.62-4.19-2.81-1.2-1.19-2.15-2.59-2.85-4.19-.7-1.6-1.03-3.32-1.03-5.15l-.1-18.1h-4.57v18.1c0,2.47.48,4.79,1.42,6.96.95,2.17,2.23,4.07,3.86,5.71,1.62,1.63,3.52,2.93,5.69,3.87,2.17.95,4.49,1.42,6.97,1.42s4.74-.48,6.92-1.42c2.17-.95,4.06-2.24,5.67-3.87,1.61-1.64,2.89-3.54,3.83-5.71.95-2.17,1.42-4.49,1.42-6.96v-18.15h-4.67Z"/>
        <path class="cls-1" d="M332.63,297.9v-31.54h-4.76v36.16h27.01v-4.62h-22.25Z"/>
        <path class="cls-1" d="M347.66,266.36v4.72l15.84-.1v31.54h4.67v-31.54h15.94v-4.62h-36.45Z"/>
        <path class="cls-1" d="M418.77,266.36v18.15c0,1.83-.35,3.55-1.04,5.15-.69,1.61-1.64,3.01-2.85,4.19s-2.61,2.13-4.22,2.81c-1.61.69-3.31,1.03-5.12,1.03s-3.54-.34-5.13-1.03c-1.59-.69-2.99-1.62-4.19-2.81-1.21-1.19-2.16-2.59-2.85-4.19-.69-1.6-1.03-3.32-1.03-5.15l-.1-18.1h-4.57v18.1c0,2.47.48,4.79,1.42,6.96.95,2.17,2.24,4.07,3.86,5.71,1.62,1.63,3.52,2.93,5.69,3.87,2.17.95,4.49,1.42,6.97,1.42s4.75-.48,6.92-1.42c2.17-.95,4.06-2.24,5.67-3.87,1.61-1.64,2.89-3.54,3.83-5.71.95-2.17,1.42-4.49,1.42-6.96v-18.15h-4.66Z"/>
        <path class="cls-1" d="M453.49,289.53c2.28-.48,4.13-1.39,5.56-2.72,1.42-1.33,2.43-2.85,3.03-4.57.59-1.71.79-3.51.6-5.37-.19-1.86-.76-3.57-1.71-5.13-.95-1.55-2.26-2.84-3.93-3.85-1.66-1.01-3.67-1.52-6.01-1.52h-4.79c-1.88,0-3.9,0-6.05.02-2.15.02-4.32.02-6.54.02h-6.26v36.11h4.67v-12.81h15.31c3.95,4.34,7.86,8.59,11.75,12.76l6.4.05-12.03-13ZM432.06,285.1v-14.02c1.31,0,2.84,0,4.57-.02,1.73-.02,3.48-.02,5.25-.02s3.46,0,5.08-.02c1.62-.02,2.98-.02,4.07-.02,1.57,0,2.88.35,3.92,1.03,1.04.69,1.83,1.57,2.36,2.63.53,1.06.79,2.19.79,3.39s-.26,2.34-.79,3.39c-.53,1.06-1.32,1.93-2.36,2.62-1.04.69-2.35,1.04-3.92,1.04h-18.97Z"/>
        <path class="cls-1" d="M496.72,270.99v-4.62h-.66c-1.75,0-3.6,0-5.56.02-1.96.02-3.97.02-6.04.02h-6.05c-1.96,0-3.81,0-5.56-.02-1.75-.02-3.28-.02-4.6-.02v36.16h28.47v-4.72h-23.79v-12.18h23.79v-4.62h-23.79v-10.01h23.79Z"/>
        <g>
          <path class="cls-1" d="M98.99,266.25c2.57,0,4.97.47,7.22,1.41,2.25.94,4.2,2.25,5.87,3.93,1.7,1.65,3.03,3.57,4,5.75.96,2.19,1.44,4.54,1.44,7.07s-.48,4.89-1.44,7.09c-.96,2.2-2.3,4.11-4,5.73-1.67,1.65-3.63,2.96-5.87,3.93-2.25.97-4.65,1.46-7.22,1.46h-4.96c-2.6,0-5.02-.49-7.25-1.46-2.23-.97-4.2-2.28-5.9-3.93-1.67-1.62-2.99-3.53-3.95-5.73-.96-2.2-1.44-4.56-1.44-7.09s.48-4.88,1.44-7.07c.96-2.19,2.28-4.1,3.95-5.75,1.7-1.68,3.67-2.99,5.9-3.93,2.23-.94,4.65-1.41,7.25-1.41h4.96ZM94.06,270.82c-1.92,0-3.72.36-5.39,1.07-1.67.71-3.13,1.68-4.37,2.91-1.25,1.23-2.25,2.67-3,4.31-.75,1.65-1.13,3.41-1.13,5.28s.38,3.64,1.13,5.28c.75,1.65,1.75,3.09,3,4.31,1.25,1.23,2.71,2.2,4.37,2.91,1.67.71,3.46,1.07,5.39,1.07h4.95c1.92,0,3.72-.36,5.38-1.07,1.67-.71,3.13-1.68,4.38-2.91,1.22-1.23,2.2-2.67,2.96-4.31.75-1.65,1.13-3.41,1.13-5.28s-.38-3.63-1.13-5.28c-.75-1.65-1.74-3.09-2.96-4.31-1.25-1.23-2.71-2.2-4.38-2.91-1.67-.71-3.46-1.07-5.38-1.07h-4.95Z"/>
          <path class="cls-1" d="M122.39,266.46l11.12,28.36c.55,1.03,1.24,1.8,2.07,2.31.83.51,1.69.77,2.58.77s1.73-.26,2.55-.77c.82-.51,1.5-1.28,2.05-2.31l11.41-28.46h5.01l-12.13,30.19c-.96,2.02-2.25,3.54-3.85,4.55-1.61,1.01-3.28,1.52-5.03,1.52s-3.43-.51-5.03-1.52c-1.61-1.01-2.89-2.53-3.85-4.55l-11.99-30.09h5.1Z"/>
          <path class="cls-1" d="M202.51,273.35v29.27h-4.67v-36.16h4.67l27.11,29.27v-29.27h4.67v36.16h-4.67l-27.11-29.27Z"/>
          <path class="cls-1" d="M192.01,271.08v-4.62h-.66c-1.75,0-3.6,0-5.56.02s-3.97.02-6.04.02h-6.05c-1.96,0-3.81,0-5.56-.02-1.75-.02-3.28-.02-4.6-.02v36.16h28.47v-4.72h-23.79v-12.18h23.79v-4.62h-23.79v-10.01h23.79Z"/>
          <path class="cls-1" d="M75.45,266.41l-12.13,30.14c-.93,2.03-2.05,3.54-3.37,4.55s-2.68,1.52-4.07,1.52-2.76-.51-4.07-1.52c-1.32-1.01-2.46-2.52-3.42-4.55l-9.63-23.88-9.49,23.88c-.96,2.03-2.11,3.54-3.44,4.55-1.33,1.01-2.7,1.52-4.11,1.52s-2.77-.51-4.09-1.52c-1.32-1.01-2.46-2.52-3.42-4.55-2.31-5.68-4.58-11.32-6.81-16.92-1.77-4.45-3.56-8.91-5.36-13.42-.47-1.16-.94-2.33-1.41-3.5.41-.06.81-.1,1.18-.1h3.73l1.49,3.6h-.11c.28.53.55,1.08.78,1.65l10.88,26.91c2.09,4.14,4.2,4.14,6.35,0l11.32-28.26v-.1h5.06v.1l11.32,28.26c2.15,4.07,4.3,4.07,6.45,0,1.89-4.78,3.77-9.51,5.63-14.2,1.86-4.69,3.78-9.41,5.78-14.16h4.95Z"/>
        </g>
      </g>
      <g>
        <path class="cls-1" d="M497.35,233.09h-32.44l-27.22-29.97c-10.14-10.89-20.25-21.69-30.36-32.55-15.75-16.92-31.55-34.05-47.44-51.38h-31.97v-23.75h31.97l68.16-73.33h32.66l-79.24,85.22,92.88,100.83,23,24.94Z"/>
        <path class="cls-1" d="M245.67,174.6l-49.52-122.8-48.8,122.8c-4.94,10.44-10.86,18.22-17.72,23.41-6.81,5.19-13.89,7.83-21.16,7.83s-14.25-2.64-21.03-7.83c-6.78-5.19-12.64-12.97-17.58-23.41-11.89-29.22-23.58-58.19-35.05-87.05C25.69,64.69,16.5,41.69,7.22,18.53,4.83,12.55,2.42,6.56,0,.53,2.11.19,4.17,0,6.08,0h19.19l7.67,18.53h-.56c1.44,2.75,2.83,5.58,4.03,8.5l55.97,138.43c10.72,21.3,21.61,21.3,32.69,0L183.26,20.08v-.19h26.03v.19l58.22,145.38c6.79,12.89,13.58,17.85,20.37,14.9,1.61-.7,2.55-2.4,2.55-4.15V19.89h23.61v159.65c0,7.15-3.11,14.07-8.79,18.4-.03.02-.06.05-.1.07-4.81,3.69-9.72,6.08-14.72,7.17-2.06.44-4.11.67-6.19.67-7.19,0-14.19-2.64-20.97-7.83-6.78-5.19-12.64-12.97-17.58-23.41"/>
        <rect class="cls-1" x="183.26" y="19.58" width="26.03" height=".31"/>
      </g>
    </g>
  </g>
</svg>