<?xml version="1.0" encoding="UTF-8"?>
<svg id="Layer_2" data-name="Layer 2" xmlns="http://www.w3.org/2000/svg" viewBox="0 0 695 167">
  <defs>
    <style>
      .cls-1 {
        fill: #e6ded3;
        stroke-width: 0px;
      }
    </style>
  </defs>
  <g id="Layer_1-2" data-name="Layer 1">
    <g>
      <g>
        <path class="cls-1" d="M488.42,133.47h-5.66l-4.75-5.23c-1.77-1.9-3.53-3.79-5.3-5.68-2.75-2.95-5.51-5.94-8.28-8.97h-6.01v15.52h-4.11s-.09-32.47-.09-32.47h4.2v12.8h6.01l11.9-12.8h5.7l-13.83,14.88,16.21,17.6,4.01,4.35Z"/>
        <path class="cls-1" d="M516.74,96.64v16.3c0,1.64-.31,3.19-.93,4.62-.62,1.44-1.47,2.7-2.55,3.77-1.08,1.07-2.35,1.91-3.79,2.53-1.44.62-2.98.93-4.59.93s-3.19-.3-4.62-.93c-1.43-.62-2.69-1.46-3.77-2.53s-1.93-2.32-2.55-3.77c-.62-1.44-.93-2.98-.93-4.62l-.09-16.26h-4.11v16.26c0,2.22.43,4.3,1.28,6.25.85,1.95,2,3.65,3.46,5.12,1.46,1.47,3.16,2.63,5.11,3.48,1.95.85,4.04,1.28,6.26,1.28s4.26-.43,6.21-1.28c1.95-.85,3.64-2.01,5.09-3.48,1.44-1.47,2.59-3.18,3.44-5.12.85-1.95,1.28-4.03,1.28-6.25v-16.3h-4.2Z"/>
        <path class="cls-1" d="M533.33,124.96v-28.32h-4.27v32.47h24.26v-4.15h-19.98Z"/>
        <path class="cls-1" d="M551.77,96.64v4.24l14.23-.09v28.32h4.2v-28.32h14.31v-4.15h-32.73Z"/>
        <path class="cls-1" d="M618.63,96.64v16.3c0,1.64-.31,3.19-.94,4.62-.62,1.44-1.47,2.7-2.55,3.77-1.08,1.07-2.34,1.91-3.79,2.53-1.44.62-2.98.93-4.59.93s-3.18-.3-4.61-.93c-1.43-.62-2.69-1.46-3.77-2.53-1.09-1.07-1.94-2.32-2.56-3.77-.62-1.44-.93-2.98-.93-4.62l-.09-16.26h-4.11v16.26c0,2.22.43,4.3,1.28,6.25.86,1.95,2.01,3.65,3.46,5.12,1.46,1.47,3.16,2.63,5.11,3.48,1.95.85,4.04,1.28,6.26,1.28s4.27-.43,6.21-1.28c1.95-.85,3.64-2.01,5.09-3.48,1.44-1.47,2.59-3.18,3.44-5.12.86-1.95,1.28-4.03,1.28-6.25v-16.3h-4.19Z"/>
        <path class="cls-1" d="M652.44,117.44c2.05-.44,3.71-1.25,4.99-2.45,1.28-1.2,2.18-2.56,2.72-4.11.53-1.54.71-3.15.54-4.82-.17-1.67-.68-3.21-1.53-4.61-.85-1.39-2.02-2.55-3.53-3.45-1.5-.91-3.3-1.36-5.4-1.36h-4.3c-1.68,0-3.5,0-5.43.02-1.93.01-3.88.02-5.87.02h-5.62v32.43h4.2v-11.5h13.75c3.55,3.9,7.06,7.72,10.55,11.46l5.75.04-10.81-11.67ZM633.2,113.46v-12.59c1.18,0,2.55,0,4.11-.02,1.55-.01,3.12-.02,4.71-.02s3.11,0,4.56-.02c1.46-.01,2.68-.02,3.66-.02,1.41,0,2.58.31,3.52.93.94.62,1.65,1.41,2.12,2.36.48.95.71,1.97.71,3.05s-.23,2.1-.71,3.05c-.47.95-1.18,1.73-2.12,2.35-.94.62-2.11.94-3.52.94h-17.03Z"/>
        <path class="cls-1" d="M695,100.79v-4.15h-.6c-1.57,0-3.24,0-4.99.02s-3.56.02-5.42.02h-5.43c-1.76,0-3.43,0-4.99-.02-1.57-.01-2.95-.02-4.13-.02v32.47h25.56v-4.24h-21.37v-10.94h21.37v-4.15h-21.37v-8.99h21.37Z"/>
        <g>
          <path class="cls-1" d="M552.49,36.81c2.31,0,4.47.42,6.49,1.26,2.02.84,3.78,2.02,5.27,3.53,1.53,1.48,2.72,3.2,3.59,5.17.86,1.96,1.3,4.08,1.3,6.35s-.43,4.39-1.3,6.37c-.86,1.98-2.06,3.69-3.59,5.15-1.5,1.48-3.26,2.66-5.27,3.53-2.02.87-4.18,1.31-6.49,1.31h-4.45c-2.34,0-4.5-.44-6.51-1.31-2-.87-3.77-2.05-5.3-3.53-1.5-1.45-2.68-3.17-3.55-5.15-.86-1.98-1.3-4.1-1.3-6.37s.43-4.38,1.3-6.35c.86-1.96,2.05-3.68,3.55-5.17,1.53-1.51,3.29-2.69,5.3-3.53,2-.84,4.17-1.26,6.51-1.26h4.45ZM548.07,40.91c-1.73,0-3.34.32-4.84.96-1.5.64-2.81,1.51-3.93,2.61-1.12,1.1-2.02,2.39-2.7,3.87-.68,1.48-1.01,3.06-1.01,4.74s.34,3.27,1.01,4.75c.68,1.48,1.58,2.77,2.7,3.87,1.12,1.1,2.43,1.97,3.93,2.61,1.5.64,3.11.96,4.84.96h4.45c1.73,0,3.34-.32,4.83-.96,1.5-.64,2.81-1.51,3.93-2.61,1.09-1.1,1.98-2.39,2.66-3.87.68-1.48,1.01-3.06,1.01-4.75s-.34-3.26-1.01-4.74c-.68-1.48-1.56-2.77-2.66-3.87-1.12-1.1-2.43-1.97-3.93-2.61-1.5-.64-3.11-.96-4.83-.96h-4.45Z"/>
          <path class="cls-1" d="M583.71,37l9.99,25.47c.49.92,1.11,1.61,1.86,2.08.75.46,1.52.69,2.31.69s1.56-.23,2.29-.69c.74-.46,1.35-1.15,1.84-2.08l10.25-25.55h4.5l-10.9,27.11c-.86,1.82-2.02,3.18-3.46,4.09-1.44.91-2.95,1.36-4.52,1.36s-3.08-.45-4.52-1.36c-1.44-.91-2.59-2.27-3.46-4.09l-10.77-27.02h4.58Z"/>
          <path class="cls-1" d="M666.46,43.18v26.29h-4.19v-32.47h4.19l24.34,26.29v-26.29h4.19v32.47h-4.19l-24.34-26.29Z"/>
          <path class="cls-1" d="M652.29,41.15v-4.15h-.6c-1.57,0-3.24,0-4.99.02s-3.56.02-5.42.02h-5.43c-1.76,0-3.43,0-4.99-.02-1.57-.01-2.95-.02-4.13-.02v32.47h25.56v-4.24h-21.37v-10.94h21.37v-4.15h-21.37v-8.99h21.37Z"/>
          <path class="cls-1" d="M521.41,36.95l-10.89,27.06c-.83,1.82-1.84,3.18-3.03,4.09-1.18.91-2.4,1.36-3.65,1.36s-2.47-.46-3.66-1.36c-1.18-.91-2.21-2.26-3.07-4.09l-8.64-21.44-8.52,21.44c-.86,1.82-1.89,3.18-3.09,4.09-1.19.91-2.42,1.36-3.69,1.36s-2.49-.46-3.67-1.36c-1.18-.91-2.21-2.26-3.07-4.09-2.08-5.1-4.12-10.16-6.12-15.2-1.59-3.99-3.19-8.01-4.81-12.05-.42-1.05-.84-2.09-1.26-3.14.37-.06.73-.09,1.06-.09h3.35l1.34,3.24h-.09c.25.48.49.97.7,1.48l9.77,24.17c1.87,3.72,3.77,3.72,5.7,0l10.16-25.38v-.09h4.54v.09l10.16,25.38c1.93,3.66,3.86,3.66,5.79,0,1.7-4.3,3.38-8.54,5.06-12.75,1.67-4.21,3.4-8.45,5.19-12.72h4.45Z"/>
        </g>
      </g>
      <g>
        <path class="cls-1" d="M301.02,154.04h-19.64l-16.48-18.14c-6.14-6.59-12.26-13.13-18.37-19.7-9.53-10.24-19.1-20.61-28.71-31.1h-19.35v-14.37h19.35l41.26-44.38h19.77l-47.96,51.58,56.22,61.03,13.92,15.1Z"/>
        <path class="cls-1" d="M190.07,25v96.63c0,4.33-1.88,8.52-5.32,11.14-.02.01-.04.03-.06.04-2.91,2.24-5.88,3.68-8.91,4.34-1.24.27-2.49.4-3.75.4-4.35,0-8.59-1.6-12.69-4.74-4.1-3.14-7.65-7.85-10.64-14.17l-29.97-74.32-29.54,74.32c-2.99,6.32-6.57,11.03-10.73,14.17-4.12,3.14-8.41,4.74-12.81,4.74s-8.62-1.6-12.73-4.74c-4.1-3.14-7.65-7.85-10.64-14.17-7.2-17.69-14.27-35.22-21.22-52.69-5.51-13.84-11.08-27.76-16.69-41.78-1.45-3.61-2.91-7.25-4.37-10.89,1.28-.2,2.52-.32,3.68-.32h11.62l4.64,11.21h-.34c.87,1.66,1.71,3.38,2.44,5.14l33.87,83.79c6.49,12.89,13.08,12.89,19.79,0L110.92,25.12v-.12h15.75v.12l35.24,87.99c4.11,7.8,8.22,10.81,12.33,9.02.97-.42,1.54-1.45,1.54-2.51V25h14.29Z"/>
        <rect class="cls-1" x="110.92" y="24.81" width="15.75" height=".18"/>
      </g>
      <rect class="cls-1" x="376.46" width="2.33" height="167"/>
    </g>
  </g>
</svg>