<?xml version="1.0" encoding="UTF-8"?>
<svg id="Layer_2" data-name="Layer 2" xmlns="http://www.w3.org/2000/svg" viewBox="0 0 462.59 448.86">
  <defs>
    <style>
      .cls-1 {
        fill: #e6ded3;
        stroke-width: 0px;
      }
    </style>
  </defs>
  <g id="Layer_1-2" data-name="Layer 1">
    <g>
      <g>
        <path class="cls-1" d="M363.17,299.19h-17.34l-14.55-16.02c-5.42-5.82-10.82-11.6-16.23-17.4-8.42-9.04-16.87-18.2-25.36-27.47h-17.09v-12.69h17.09l36.43-39.2h17.46l-42.36,45.55,49.65,53.89,12.29,13.33Z"/>
        <path class="cls-1" d="M265.18,185.23v85.34c0,3.82-1.66,7.52-4.7,9.84-.02.01-.03.03-.05.04-2.57,1.97-5.2,3.25-7.87,3.83-1.1.24-2.2.36-3.31.36-3.85,0-7.59-1.41-11.21-4.19-3.62-2.78-6.76-6.93-9.4-12.52l-26.47-65.64-26.09,65.64c-2.64,5.58-5.81,9.74-9.47,12.52-3.64,2.78-7.42,4.19-11.31,4.19s-7.62-1.41-11.24-4.19c-3.62-2.78-6.76-6.93-9.4-12.52-6.35-15.62-12.61-31.1-18.74-46.53-4.87-12.22-9.78-24.51-14.74-36.89-1.28-3.19-2.57-6.4-3.86-9.62,1.13-.18,2.23-.28,3.25-.28h10.26l4.1,9.9h-.3c.77,1.47,1.51,2.98,2.15,4.54l29.92,74c5.73,11.39,11.55,11.39,17.47,0l31.1-77.71v-.1h13.91v.1l31.12,77.71c3.63,6.89,7.26,9.54,10.89,7.96.86-.37,1.36-1.28,1.36-2.22v-83.56h12.62Z"/>
        <rect class="cls-1" x="195.28" y="185.07" width="13.91" height=".16"/>
      </g>
      <g>
        <path class="cls-1" d="M1.25,172.65l21.22-.36c3.21-.32,3.74-1.7,1.59-4.13l-15.55-14.41-.06-.03,1.26-3.29.06.03,21.2-.3c3.19-.38,3.72-1.78,1.61-4.19-2.64-2.42-5.24-4.83-7.83-7.21-2.58-2.38-5.17-4.81-7.76-7.29l1.24-3.22,16.56,15.41c1.08,1.11,1.79,2.22,2.12,3.33.33,1.11.32,2.11-.03,3.02-.35.91-1.02,1.66-2,2.27-.99.6-2.26.96-3.81,1.09l-17.93.3,13.16,12.13c1.08,1.13,1.77,2.26,2.1,3.37.32,1.12.31,2.14-.04,3.06-.35.92-1.02,1.68-2.01,2.28-.99.6-2.26.97-3.81,1.09-1.71.04-3.53.07-5.44.1-1.92.03-3.85.06-5.82.08-1.96.03-3.9.05-5.83.08-1.93.03-3.74.05-5.45.06l1.25-3.25Z"/>
        <path class="cls-1" d="M41.84,93.5c1.07-1.43,2.34-2.58,3.8-3.44,1.46-.86,3-1.41,4.63-1.64,1.62-.26,3.24-.21,4.85.16,1.61.37,3.11,1.08,4.5,2.13,1.39,1.05,2.5,2.3,3.31,3.75.81,1.45,1.31,2.98,1.49,4.6.21,1.61.12,3.25-.29,4.9s-1.14,3.2-2.22,4.63l-2.07,2.76c-1.09,1.45-2.37,2.59-3.84,3.43-1.47.84-3.02,1.39-4.64,1.65-1.59.26-3.2.2-4.82-.18-1.62-.38-3.12-1.09-4.52-2.14-1.39-1.05-2.49-2.29-3.3-3.73-.8-1.44-1.31-2.97-1.53-4.59-.22-1.65-.12-3.28.3-4.91.41-1.63,1.17-3.17,2.25-4.62l2.07-2.76ZM42.3,98.14c-.8,1.07-1.36,2.22-1.66,3.44-.3,1.22-.38,2.44-.23,3.64s.53,2.36,1.13,3.46c.59,1.1,1.41,2.04,2.44,2.82,1.04.78,2.16,1.3,3.39,1.56,1.22.26,2.44.3,3.64.12,1.2-.19,2.35-.6,3.43-1.23,1.09-.63,2.04-1.48,2.84-2.55l2.07-2.76c.8-1.07,1.36-2.22,1.67-3.44.3-1.22.38-2.44.22-3.64-.17-1.19-.55-2.33-1.14-3.43-.6-1.1-1.41-2.04-2.44-2.82-1.04-.78-2.16-1.3-3.39-1.56s-2.43-.31-3.62-.14c-1.2.19-2.35.6-3.44,1.23-1.09.64-2.04,1.49-2.84,2.55l-2.07,2.76Z"/>
        <path class="cls-1" d="M69.05,63.15l18.66,10.08c.75.3,1.46.4,2.14.3s1.25-.35,1.72-.75.81-.92,1.01-1.56c.2-.64.22-1.36.05-2.15l-6.72-20.27,2.66-2.25,7.11,21.51c.4,1.51.4,2.89,0,4.15-.4,1.26-1.06,2.28-1.99,3.07-.93.79-2.05,1.27-3.36,1.46-1.31.18-2.67-.05-4.09-.69l-19.9-10.62,2.72-2.29Z"/>
        <path class="cls-1" d="M130.31,25.5l-15.27,7.99,3.23,6.18,16.96-8.88-.53,3.91-14.94,7.82,3.93,7.52,16.96-8.88-.5,3.97-17.83,9.33-11.67-22.31c.81-.43,1.76-.91,2.85-1.47s2.23-1.15,3.44-1.78c1.21-.63,2.45-1.28,3.73-1.95,1.28-.67,2.52-1.32,3.72-1.97,1.2-.64,2.35-1.24,3.42-1.81,1.08-.56,2.04-1.06,2.87-1.5l-.38,3.83Z"/>
        <path class="cls-1" d="M159.82,15.57l5.38,19.66-3.14.86-6.64-24.29,3.14-.86,23.59,14.68-5.38-19.66,3.14-.86,6.64,24.29-3.14.86-23.59-14.68Z"/>
        <path class="cls-1" d="M254.94,26.53c-.84-1.05-1.63-2.11-2.39-3.17-.75-1.06-1.5-2.12-2.23-3.19-.73-1.07-1.48-2.14-2.23-3.21-.76-1.07-1.55-2.14-2.38-3.22l-4.65-.38-.97,12-3.24-.26,2.03-25.1,2.91.23.33.03-.8,9.89,4.65.38,9.99-9.15,4.41.36-11.88,10.88,10.02,14.2-3.58-.29Z"/>
        <path class="cls-1" d="M289.44,7.39l-3.56,12.09c-.37,1.22-.48,2.44-.34,3.64.14,1.21.49,2.33,1.06,3.36.57,1.04,1.31,1.94,2.24,2.72.92.78,2,1.35,3.22,1.72,1.2.36,2.41.47,3.62.33,1.21-.14,2.34-.48,3.38-1.03,1.04-.55,1.95-1.3,2.74-2.23.78-.93,1.36-2.01,1.72-3.23l3.63-12.11,3.12.93-3.63,12.11c-.49,1.65-1.28,3.1-2.34,4.36-1.07,1.26-2.3,2.27-3.7,3.04-1.4.77-2.92,1.25-4.55,1.45-1.64.2-3.27.05-4.9-.44-1.65-.49-3.1-1.28-4.36-2.34-1.26-1.06-2.26-2.31-3.02-3.72-.75-1.42-1.23-2.94-1.43-4.58-.2-1.63-.05-3.28.44-4.93l3.62-12.08,3.05.92Z"/>
        <path class="cls-1" d="M339.33,55.26l-16.53-8.97,12.01-22.13,2.92,1.58-10.48,19.3,13.62,7.39-1.54,2.83Z"/>
        <path class="cls-1" d="M366.87,43.03l19.92,15.73-2,2.53-8.71-6.88-13.61,17.24-2.55-2.02,13.61-17.24-8.7-6.78,2.04-2.58Z"/>
        <path class="cls-1" d="M407.89,80.07l-9.73,8.02c-.99.8-1.76,1.75-2.32,2.83-.56,1.08-.9,2.21-1.01,3.38-.11,1.17,0,2.34.33,3.5.33,1.16.89,2.24,1.7,3.23.79.97,1.73,1.74,2.81,2.3s2.21.91,3.38,1.04c1.17.13,2.34.03,3.51-.31,1.17-.33,2.25-.9,3.24-1.71l9.79-7.99,2.05,2.52-9.79,7.99c-1.33,1.09-2.79,1.85-4.38,2.29-1.59.44-3.18.59-4.76.44-1.59-.15-3.12-.6-4.59-1.35-1.47-.75-2.74-1.79-3.81-3.11-1.09-1.34-1.86-2.8-2.3-4.38-.45-1.59-.58-3.18-.41-4.77.17-1.6.63-3.13,1.38-4.59s1.79-2.74,3.13-3.83l9.77-7.97,2.02,2.47Z"/>
        <path class="cls-1" d="M436.43,119.72c.62,1.23,1.27,2.53,1.96,3.9.69,1.37,1.37,2.73,2.05,4.07.68,1.33,1.31,2.58,1.9,3.75.58,1.17,1.08,2.16,1.49,2.98.73,1.46,1.04,2.86.93,4.22-.11,1.35-.5,2.57-1.18,3.64-.67,1.08-1.56,1.96-2.66,2.66-1.1.7-2.28,1.13-3.53,1.3-1.26.17-2.52.01-3.79-.46-1.28-.48-2.42-1.35-3.43-2.62l-4.34,11.55-1.97-4c1.39-3.72,2.81-7.49,4.28-11.29l-4.77-9.54-7.97,3.99-1.46-2.91,22.48-11.26ZM440.95,135.87c-.34-.68-.77-1.52-1.28-2.53-.52-1-1.05-2.05-1.6-3.15-.55-1.1-1.1-2.19-1.65-3.26-.55-1.07-1.03-2.02-1.44-2.84l-8.72,4.37,5.91,11.81c.49.98,1.11,1.69,1.87,2.12.75.44,1.54.65,2.37.65s1.61-.19,2.36-.56c.75-.38,1.37-.89,1.87-1.56s.79-1.42.9-2.29c.1-.87-.09-1.79-.58-2.76Z"/>
        <path class="cls-1" d="M458.95,188.24l-4.24-16.7-6.76,1.71,4.71,18.56-3.68-1.42-4.15-16.35-8.22,2.09,4.71,18.56-3.75-1.4-4.95-19.5,24.41-6.2c.23.89.48,1.93.77,3.11s.6,2.44.94,3.76c.34,1.32.68,2.68,1.04,4.08.36,1.4.71,2.76,1.05,4.08.35,1.32.67,2.57.97,3.75.3,1.18.57,2.23.8,3.14l-3.64-1.26Z"/>
      </g>
      <g>
        <path class="cls-1" d="M129.51,402.94l-11.51-7.59-3.07,4.66,12.79,8.43-2.94,1.15-11.27-7.42-3.73,5.67,12.79,8.42-2.97,1.19-13.44-8.85,11.08-16.82c.61.4,1.32.88,2.13,1.42.81.54,1.67,1.12,2.59,1.72.91.6,1.84,1.22,2.81,1.85.96.63,1.9,1.24,2.82,1.84.91.59,1.78,1.15,2.59,1.69.82.53,1.54,1.01,2.17,1.42l-2.83,1.22Z"/>
        <path class="cls-1" d="M145.94,411.85c-.62-.28-1.2-.38-1.73-.28-.53.09-1,.31-1.39.63-.4.33-.7.73-.92,1.21-.22.48-.32.98-.29,1.49.02.52.17,1,.44,1.46.27.46.72.83,1.34,1.11l8.67,3.93c1.14.52,1.97,1.2,2.5,2.06.52.85.8,1.75.83,2.68.03.93-.16,1.84-.56,2.73-.4.88-.97,1.62-1.7,2.21-.73.59-1.59.97-2.58,1.14-.99.17-2.04,0-3.17-.51l-12.88-5.83,1.01-2.37,12.92,5.86c.6.27,1.17.36,1.71.27.53-.09.99-.3,1.39-.62.39-.32.7-.73.93-1.21.23-.49.34-.98.32-1.49-.01-.51-.16-.99-.44-1.45s-.73-.83-1.35-1.11l-8.67-3.93c-1.12-.51-1.95-1.19-2.47-2.05-.53-.86-.8-1.75-.83-2.69-.03-.94.16-1.85.57-2.76.41-.91.98-1.65,1.7-2.25.72-.6,1.58-.98,2.57-1.15.99-.17,2.05,0,3.17.51l13.37,6.05c-.35.45-.71.78-1.09.98-.38.2-.78.31-1.18.33-.4.02-.82-.03-1.24-.15-.43-.12-.86-.28-1.28-.47l-9.67-4.32Z"/>
        <path class="cls-1" d="M170.14,419.04l19.59,5.34-.68,2.49-8.56-2.34-4.62,16.95-2.51-.69,4.63-16.95-8.53-2.27.69-2.54Z"/>
        <path class="cls-1" d="M200.86,443.94c.2.03.34.1.43.22.09.12.13.26.1.42l-.23,1.54c-.05.35-.28.5-.68.44l-1.49-.22c-.14-.02-.27-.09-.38-.2-.11-.12-.15-.25-.13-.41l.23-1.54c.02-.16.1-.29.24-.37.14-.09.28-.12.42-.1l1.49.22Z"/>
        <path class="cls-1" d="M237.85,430.95c-.46.03-.91.04-1.35,0-.44-.03-.86-.13-1.23-.29-.38-.17-.72-.4-1.02-.71-.3-.31-.53-.74-.7-1.28l14.75-1.04c1.25-.09,2.31.12,3.18.62.87.5,1.54,1.17,2.01,1.98.47.82.74,1.72.81,2.7.07.98-.07,1.91-.42,2.79-.35.87-.92,1.62-1.71,2.24-.79.62-1.81.97-3.06,1.06l-9.5.66c-1,.07-1.73.42-2.2,1.05-.47.62-.67,1.38-.61,2.27l.21,3.08,15.52-1.09,1.84,2.45-19.78,1.39-.4-5.65c-.02-.22-.03-.4-.04-.55-.01-.15,0-.32.01-.53.07-.61.21-1.21.45-1.79.23-.58.57-1.1,1-1.56.43-.46.96-.84,1.59-1.15.62-.3,1.35-.48,2.19-.54l9.5-.67c.66-.05,1.21-.24,1.64-.57.44-.34.74-.74.92-1.22.18-.47.26-.98.21-1.52-.03-.53-.18-1.02-.42-1.47-.25-.45-.61-.81-1.08-1.08-.48-.27-1.04-.38-1.7-.34l-10.63.75Z"/>
        <path class="cls-1" d="M277.39,422.52c1.41-.34,2.78-.4,4.12-.18,1.35.22,2.58.66,3.7,1.32,1.16.66,2.14,1.52,2.94,2.58.81,1.07,1.38,2.28,1.71,3.63.34,1.35.39,2.68.17,3.99-.22,1.31-.69,2.53-1.41,3.66-.68,1.11-1.57,2.07-2.66,2.88-1.09.81-2.34,1.39-3.74,1.74l-2.68.66c-1.35.33-2.72.4-4.08.19-1.37-.21-2.61-.64-3.73-1.31-1.14-.67-2.12-1.54-2.93-2.59-.81-1.05-1.39-2.26-1.72-3.61-.33-1.36-.39-2.69-.16-4.01.23-1.32.69-2.53,1.39-3.65.69-1.1,1.59-2.07,2.7-2.9,1.11-.83,2.35-1.41,3.7-1.74l2.68-.66ZM270.81,428.67c-.65.88-1.09,1.86-1.32,2.94-.23,1.08-.21,2.17.06,3.26.25,1.01.68,1.91,1.29,2.68.62.78,1.35,1.43,2.23,1.96.84.49,1.76.81,2.77.96,1.01.14,2.04.09,3.08-.17l2.68-.66c.51-.12.98-.29,1.43-.49.45-.21.87-.43,1.28-.67l-13.49-9.8ZM286.18,436.58c.6-.91,1.02-1.88,1.26-2.92.23-1.04.21-2.1-.05-3.18-.25-1.01-.69-1.91-1.32-2.7-.63-.79-1.37-1.44-2.24-1.95-.84-.48-1.75-.79-2.76-.95-1-.16-2.03-.11-3.07.15l-2.68.66c-.51.13-.97.29-1.4.48-.43.19-.83.43-1.18.71l13.44,9.7Z"/>
        <path class="cls-1" d="M302.96,416.95c-.43.19-.85.34-1.27.46-.43.12-.85.16-1.26.14-.41-.03-.81-.13-1.2-.32-.39-.19-.75-.52-1.09-.97l13.54-5.93c1.15-.5,2.21-.66,3.2-.48.99.18,1.84.58,2.56,1.19.72.61,1.28,1.37,1.67,2.27.39.9.57,1.82.54,2.76-.03.94-.32,1.84-.86,2.69-.54.85-1.38,1.53-2.52,2.03l-8.72,3.82c-.92.4-1.49.97-1.72,1.72-.23.75-.16,1.53.19,2.35l1.24,2.83,14.25-6.24,2.55,1.69-18.15,7.96-2.27-5.18c-.08-.19-.16-.36-.22-.5-.06-.14-.12-.31-.16-.5-.14-.6-.2-1.21-.17-1.84.03-.63.17-1.23.42-1.81.25-.58.62-1.11,1.11-1.61.49-.49,1.11-.91,1.88-1.25l8.72-3.82c.61-.26,1.06-.63,1.36-1.09.29-.46.45-.95.45-1.46.01-.51-.09-1.01-.31-1.5-.21-.49-.51-.91-.9-1.24-.38-.34-.84-.56-1.39-.65-.54-.1-1.11-.01-1.72.26l-9.75,4.27Z"/>
        <path class="cls-1" d="M343.1,392.02l11,16.94-3.27-.27-8.34-12.85-5.83,16.14c1.81-1.18,3.62-2.35,5.41-3.5,1.8-1.15,3.6-2.33,5.41-3.52.19.52.26.99.23,1.43-.04.44-.15.84-.35,1.21-.2.36-.46.7-.8.99-.33.3-.7.58-1.1.84-1.75,1.15-3.5,2.3-5.26,3.43-1.76,1.13-3.51,2.26-5.25,3.39l-1.68-2.59,7.16-19.91,2.67-1.74Z"/>
      </g>
    </g>
  </g>
</svg>