<?xml version="1.0" encoding="UTF-8"?>
<svg id="Layer_2" data-name="Layer 2" xmlns="http://www.w3.org/2000/svg" viewBox="0 0 520.42 294.24">
  <defs>
    <style>
      .cls-1 {
        fill: #480100;
        stroke-width: 0px;
      }
    </style>
  </defs>
  <g id="Layer_1-2" data-name="Layer 1">
    <g>
      <g>
        <path class="cls-1" d="M455.03,294.24h-29.68l-24.9-27.42c-9.28-9.96-18.53-19.85-27.78-29.78-14.41-15.48-28.87-31.16-43.4-47.01h-29.25v-21.73h29.25l62.36-67.09h29.88l-72.5,77.96,84.98,92.25,21.04,22.82Z"/>
        <path class="cls-1" d="M287.31,99.17v146.07c0,6.54-2.84,12.87-8.04,16.83-.03.02-.06.04-.09.07-4.4,3.38-8.89,5.57-13.47,6.56-1.88.41-3.76.61-5.67.61-6.58,0-12.99-2.41-19.19-7.17-6.2-4.75-11.56-11.87-16.09-21.42l-45.31-112.35-44.65,112.35c-4.52,9.55-9.94,16.67-16.21,21.42-6.23,4.75-12.71,7.17-19.36,7.17s-13.04-2.41-19.24-7.17c-6.2-4.75-11.56-11.87-16.09-21.42-10.88-26.73-21.58-53.24-32.07-79.64-8.34-20.91-16.75-41.95-25.23-63.15-2.19-5.46-4.4-10.95-6.61-16.47,1.93-.31,3.81-.48,5.57-.48h17.56l7.01,16.95h-.51c1.32,2.52,2.59,5.11,3.68,7.78l51.21,126.65c9.81,19.49,19.77,19.49,29.91,0l53.24-133.01v-.18h23.81v.18l53.26,133.01c6.21,11.79,12.42,16.33,18.64,13.63,1.47-.64,2.33-2.19,2.33-3.8V99.17h21.6Z"/>
        <rect class="cls-1" x="167.67" y="98.9" width="23.81" height=".28"/>
      </g>
      <g>
        <g>
          <path class="cls-1" d="M348.14,66.06l7.83-.34c1.18-.15,1.36-.66.54-1.54l-5.88-5.16h-.02s.43-1.23.43-1.23h.02s7.82-.31,7.82-.31c1.17-.17,1.36-.69.55-1.56-1-.87-1.98-1.73-2.96-2.58-.98-.85-1.95-1.72-2.93-2.61l.42-1.2,6.27,5.52c.41.4.68.8.81,1.21s.14.78.02,1.12c-.12.34-.36.62-.72.86-.36.23-.82.38-1.4.44l-6.61.29,4.97,4.35c.41.41.68.81.81,1.22.13.41.14.79.01,1.13-.12.34-.36.63-.72.86-.36.23-.82.38-1.4.44-.63.03-1.3.06-2.01.09-.71.03-1.42.06-2.14.09-.72.03-1.44.06-2.15.09-.71.03-1.38.05-2.01.08l.43-1.21Z"/>
          <path class="cls-1" d="M362.35,36.43c.38-.54.84-.97,1.37-1.31.53-.33,1.09-.55,1.69-.65.6-.11,1.19-.11,1.79.01s1.16.37,1.68.74c.53.37.94.82,1.26,1.35.31.53.51,1.09.6,1.68.09.59.07,1.2-.06,1.81-.13.61-.39,1.19-.77,1.73l-.74,1.04c-.39.54-.85.98-1.38,1.3-.53.32-1.1.54-1.7.65-.59.11-1.18.1-1.78-.02-.6-.12-1.16-.37-1.69-.74-.52-.37-.94-.82-1.25-1.35-.31-.52-.51-1.08-.61-1.68-.1-.61-.08-1.21.06-1.82.14-.61.4-1.18.79-1.73l.74-1.04ZM362.56,38.14c-.29.4-.48.83-.58,1.29-.1.45-.12.9-.05,1.35.07.44.22.87.45,1.27.23.4.54.74.93,1.02.39.28.81.46,1.27.54.45.09.9.09,1.34,0,.44-.08.86-.24,1.26-.49.4-.24.74-.57,1.02-.97l.74-1.04c.29-.4.48-.83.58-1.29.1-.45.12-.9.05-1.35-.07-.44-.23-.85-.46-1.26-.23-.4-.54-.74-.93-1.02-.39-.28-.81-.46-1.27-.54-.45-.09-.9-.09-1.34-.02-.44.08-.86.24-1.26.49-.4.24-.74.57-1.02.97l-.74,1.04Z"/>
          <path class="cls-1" d="M372.08,24.97l6.99,3.54c.28.1.54.13.79.09.25-.04.46-.14.63-.29.17-.15.29-.35.36-.58.07-.24.07-.5,0-.79l-2.68-7.41.96-.86,2.84,7.87c.16.55.17,1.06.04,1.53-.13.47-.37.85-.7,1.15-.34.3-.74.49-1.23.57-.48.08-.99,0-1.52-.21l-7.45-3.72.98-.87Z"/>
          <path class="cls-1" d="M394.32,10.48l-5.56,3.1,1.25,2.25,6.17-3.44-.16,1.45-5.44,3.03,1.53,2.73,6.17-3.44-.14,1.47-6.49,3.62-4.53-8.12c.3-.16.64-.35,1.04-.57.39-.22.81-.45,1.25-.69.44-.25.89-.5,1.36-.76.46-.26.92-.51,1.35-.76.44-.25.85-.48,1.25-.7.39-.22.74-.41,1.04-.58l-.1,1.42Z"/>
          <path class="cls-1" d="M405.13,6.52l2.18,7.2-1.15.35-2.69-8.9,1.15-.35,8.85,5.19-2.18-7.2,1.15-.35,2.69,8.9-1.15.35-8.85-5.19Z"/>
          <path class="cls-1" d="M440.32,9.63c-.32-.38-.62-.76-.91-1.15-.29-.38-.57-.77-.86-1.16-.28-.39-.57-.77-.85-1.16-.29-.39-.59-.78-.91-1.17l-1.72-.09-.24,4.44-1.2-.06.5-9.28,1.08.06h.12s-.2,3.66-.2,3.66l1.72.09,3.6-3.47,1.63.09-4.28,4.13,3.84,5.14-1.32-.07Z"/>
          <path class="cls-1" d="M452.91,2.24l-1.2,4.5c-.12.45-.15.9-.09,1.35.06.45.2.86.42,1.23.22.38.5.7.85.98.35.28.75.48,1.2.6.45.12.89.15,1.34.09.45-.06.86-.2,1.24-.41.38-.21.71-.5.99-.85.28-.35.48-.75.61-1.21l1.22-4.5,1.16.32-1.22,4.5c-.17.61-.44,1.16-.82,1.63-.38.47-.83.86-1.34,1.16-.51.3-1.06.49-1.67.58-.6.09-1.21.05-1.81-.11-.61-.17-1.16-.44-1.63-.82-.47-.38-.86-.83-1.15-1.35-.29-.52-.48-1.07-.57-1.68s-.05-1.21.12-1.82l1.22-4.49,1.13.31Z"/>
          <path class="cls-1" d="M471.75,19.41l-6.19-3.15,4.22-8.28,1.09.56-3.68,7.23,5.1,2.59-.54,1.06Z"/>
          <path class="cls-1" d="M481.81,14.64l7.5,5.61-.71.95-3.28-2.45-4.85,6.49-.96-.72,4.86-6.49-3.28-2.42.73-.97Z"/>
          <path class="cls-1" d="M497.32,27.92l-3.51,3.05c-.36.31-.63.66-.83,1.07-.2.4-.31.82-.34,1.26-.03.43.02.86.15,1.29.13.43.35.82.66,1.17.3.35.65.63,1.06.82.4.2.82.31,1.26.35.43.04.86-.01,1.29-.15.43-.13.82-.35,1.18-.66l3.54-3.04.78.91-3.54,3.04c-.48.41-1.01.71-1.59.89-.58.18-1.17.25-1.75.21-.59-.04-1.16-.19-1.71-.45-.55-.26-1.03-.63-1.44-1.11-.41-.48-.71-1.01-.89-1.6-.18-.58-.25-1.17-.2-1.76.05-.59.2-1.16.47-1.71.26-.55.64-1.03,1.12-1.44l3.53-3.03.77.89Z"/>
          <path class="cls-1" d="M508.22,42.26c.24.45.49.92.76,1.42.27.5.53.99.8,1.48s.51.94.74,1.37c.23.43.42.79.58,1.09.28.53.41,1.05.39,1.55-.03.5-.16.95-.4,1.36-.24.4-.56.74-.96,1.01-.4.27-.83.44-1.29.51-.46.07-.93.03-1.4-.13-.48-.16-.91-.47-1.29-.93l-1.49,4.3-.76-1.46c.48-1.39.97-2.79,1.47-4.21l-1.85-3.47-2.9,1.55-.57-1.06,8.19-4.37ZM510.05,48.18c-.13-.25-.3-.55-.5-.92-.2-.37-.41-.75-.62-1.15-.21-.4-.43-.8-.64-1.19-.21-.39-.4-.74-.56-1.03l-3.18,1.7,2.3,4.3c.19.36.43.61.71.76.28.15.58.23.88.22.3,0,.59-.08.87-.23.27-.15.5-.34.67-.59.18-.25.28-.53.31-.85.03-.32-.05-.66-.24-1.02Z"/>
          <path class="cls-1" d="M517.2,67.35l-1.73-6.12-2.48.7,1.92,6.8-1.37-.49-1.69-5.99-3.01.85,1.92,6.8-1.4-.48-2.02-7.15,8.95-2.52c.09.33.2.71.31,1.14.12.43.25.89.38,1.38.14.48.28.98.42,1.49.14.51.29,1.01.43,1.49.14.48.27.94.39,1.37.12.43.23.82.32,1.15l-1.36-.43Z"/>
        </g>
        <g>
          <path class="cls-1" d="M518.13,113.59l-7.83.34c-1.18.15-1.36.66-.54,1.54l5.88,5.16h.02s-.43,1.23-.43,1.23h-.02s-7.82.31-7.82.31c-1.17.17-1.36.69-.55,1.56,1,.87,1.98,1.73,2.96,2.58.98.85,1.95,1.72,2.93,2.61l-.42,1.2-6.27-5.52c-.41-.4-.68-.8-.81-1.21s-.14-.78-.02-1.12c.12-.34.36-.62.72-.86.36-.23.82-.38,1.4-.44l6.61-.29-4.97-4.35c-.41-.41-.68-.81-.81-1.22-.13-.41-.14-.79-.01-1.13.12-.34.36-.63.72-.86.36-.23.82-.38,1.4-.44.63-.03,1.3-.06,2.01-.09.71-.03,1.42-.06,2.14-.09.72-.03,1.44-.06,2.15-.09.71-.03,1.38-.05,2.01-.08l-.43,1.21Z"/>
          <path class="cls-1" d="M503.91,143.22c-.38.54-.84.97-1.37,1.31-.53.33-1.09.55-1.69.65-.6.11-1.19.11-1.79-.01s-1.16-.37-1.68-.74c-.53-.37-.94-.82-1.26-1.35-.31-.53-.51-1.09-.6-1.68-.09-.59-.07-1.2.06-1.81.13-.61.39-1.19.77-1.73l.74-1.04c.39-.54.85-.98,1.38-1.3.53-.32,1.1-.54,1.7-.65.59-.11,1.18-.1,1.78.02.6.12,1.16.37,1.69.74.52.37.94.82,1.25,1.35.31.52.51,1.08.61,1.68.1.61.08,1.21-.06,1.82-.14.61-.4,1.18-.79,1.73l-.74,1.04ZM503.7,141.51c.29-.4.48-.83.58-1.29.1-.45.12-.9.05-1.35-.07-.44-.22-.87-.45-1.27-.23-.4-.54-.74-.93-1.02-.39-.28-.81-.46-1.27-.54-.45-.09-.9-.09-1.34,0-.44.08-.86.24-1.26.49-.4.24-.74.57-1.02.97l-.74,1.04c-.29.4-.48.83-.58,1.29-.1.45-.12.9-.05,1.35.07.44.23.85.46,1.26.23.4.54.74.93,1.02.39.28.81.46,1.27.54.45.09.9.09,1.34.02.44-.08.86-.24,1.26-.49.4-.24.74-.57,1.02-.97l.74-1.04Z"/>
          <path class="cls-1" d="M494.18,154.68l-6.99-3.54c-.28-.1-.54-.13-.79-.09-.25.04-.46.14-.63.29-.17.15-.29.35-.36.58-.07.24-.07.5,0,.79l2.68,7.41-.96.86-2.84-7.87c-.16-.55-.17-1.06-.04-1.53.13-.47.37-.85.7-1.15.34-.3.74-.49,1.23-.57.48-.08.99,0,1.52.21l7.45,3.72-.98.87Z"/>
          <path class="cls-1" d="M471.94,169.17l5.56-3.1-1.25-2.25-6.17,3.44.16-1.45,5.44-3.03-1.53-2.73-6.17,3.44.14-1.47,6.49-3.62,4.53,8.12c-.3.16-.64.35-1.04.57-.39.22-.81.45-1.25.69s-.89.5-1.36.76c-.46.26-.92.51-1.35.76-.44.25-.85.48-1.25.7-.39.22-.74.41-1.04.58l.1-1.42Z"/>
          <path class="cls-1" d="M461.14,173.13l-2.18-7.2,1.15-.35,2.69,8.9-1.15.35-8.85-5.19,2.18,7.2-1.15.35-2.69-8.9,1.15-.35,8.85,5.19Z"/>
          <path class="cls-1" d="M425.95,170.02c.32.38.62.76.91,1.15.29.38.57.77.86,1.16.28.39.57.77.85,1.16.29.39.59.78.91,1.17l1.72.09.24-4.44,1.2.06-.5,9.28-1.08-.06h-.12s.2-3.66.2-3.66l-1.72-.09-3.6,3.47-1.63-.09,4.28-4.13-3.84-5.14,1.32.07Z"/>
          <path class="cls-1" d="M413.35,177.41l1.2-4.5c.12-.45.15-.9.09-1.35-.06-.45-.2-.86-.42-1.23-.22-.38-.5-.7-.85-.98-.35-.28-.75-.48-1.2-.6-.45-.12-.89-.15-1.34-.09-.45.06-.86.2-1.24.41-.38.21-.71.5-.99.85-.28.35-.48.75-.61,1.21l-1.22,4.5-1.16-.32,1.22-4.5c.17-.61.44-1.16.82-1.63.38-.47.83-.86,1.34-1.16.51-.3,1.06-.49,1.67-.58.6-.09,1.21-.05,1.81.11.61.17,1.16.44,1.63.82.47.38.86.83,1.15,1.35.29.52.48,1.07.57,1.68.09.6.05,1.21-.12,1.82l-1.22,4.49-1.13-.31Z"/>
          <path class="cls-1" d="M394.51,160.23l6.19,3.15-4.22,8.28-1.09-.56,3.68-7.23-5.1-2.59.54-1.06Z"/>
          <path class="cls-1" d="M384.45,165.01l-7.5-5.61.71-.95,3.28,2.45,4.85-6.49.96.72-4.86,6.49,3.28,2.42-.73.97Z"/>
          <path class="cls-1" d="M368.95,151.73l3.51-3.05c.36-.31.63-.66.83-1.07.2-.4.31-.82.34-1.26.03-.43-.02-.86-.15-1.29-.13-.43-.35-.82-.66-1.17-.3-.35-.65-.63-1.06-.82-.4-.2-.82-.31-1.26-.35s-.86.01-1.29.15c-.43.13-.82.35-1.18.66l-3.54,3.04-.78-.91,3.54-3.04c.48-.41,1.01-.71,1.59-.89.58-.18,1.17-.25,1.75-.21.59.04,1.16.19,1.71.45.55.26,1.03.63,1.44,1.11.41.48.71,1.01.89,1.6.18.58.25,1.17.2,1.76-.05.59-.2,1.16-.47,1.71-.26.55-.64,1.03-1.12,1.44l-3.53,3.03-.77-.89Z"/>
          <path class="cls-1" d="M358.04,137.38c-.24-.45-.49-.92-.76-1.42-.27-.5-.53-.99-.8-1.48s-.51-.94-.74-1.37c-.23-.43-.42-.79-.58-1.09-.28-.53-.41-1.05-.39-1.55.03-.5.16-.95.4-1.36.24-.4.56-.74.96-1.01.4-.27.83-.44,1.29-.51.46-.07.93-.03,1.4.13.48.16.91.47,1.29.93l1.49-4.3.76,1.46c-.48,1.39-.97,2.79-1.47,4.21l1.85,3.47,2.9-1.55.57,1.06-8.19,4.37ZM356.22,131.47c.13.25.3.55.5.92.2.37.41.75.62,1.15.21.4.43.8.64,1.19.21.39.4.74.56,1.03l3.18-1.7-2.3-4.3c-.19-.36-.43-.61-.71-.76-.28-.15-.58-.23-.88-.22-.3,0-.59.08-.87.23-.27.15-.5.34-.67.59s-.28.53-.31.85c-.03.32.05.66.24,1.02Z"/>
          <path class="cls-1" d="M349.06,112.3l1.73,6.12,2.48-.7-1.92-6.8,1.37.49,1.69,5.99,3.01-.85-1.92-6.8,1.4.48,2.02,7.15-8.95,2.52c-.09-.33-.2-.71-.31-1.14-.12-.43-.25-.89-.38-1.38-.14-.48-.28-.98-.42-1.49-.14-.51-.29-1.01-.43-1.49-.14-.48-.27-.94-.39-1.37-.12-.43-.23-.82-.32-1.15l1.36.43Z"/>
        </g>
        <rect class="cls-1" x="347.71" y="85.37" width="6.25" height="6.25" transform="translate(661.49 -97) rotate(135)"/>
        <rect class="cls-1" x="512.88" y="85.37" width="6.25" height="6.25" transform="translate(943.44 -213.79) rotate(135)"/>
      </g>
    </g>
  </g>
</svg>