<?xml version="1.0" encoding="UTF-8"?>
<svg id="Layer_2" data-name="Layer 2" xmlns="http://www.w3.org/2000/svg" viewBox="0 0 698 189.19">
  <defs>
    <style>
      .cls-1 {
        fill: #480100;
      }

      .cls-1, .cls-2 {
        stroke-width: 0px;
      }

      .cls-2 {
        fill: #b90106;
      }
    </style>
  </defs>
  <g id="Layer_1-2" data-name="Layer 1">
    <g>
      <g>
        <path class="cls-1" d="M193.37,10.53c-5.5,13.16-10.83,26.22-16,39.2-5.15,12.98-10.34,26.06-15.59,39.31-5.95,11.28-11.9,11.28-17.85,0L112.6,10.8v-.27h-13.98v.27l-31.32,78.24c-5.95,11.46-11.81,11.46-17.59,0L19.58,14.53c-.89-2.13-1.88-4.18-3-6.13-1.1-1.95-2.42-3.6-3.94-4.92-1.5-1.34-3.29-2.33-5.39-2.93C5.17-.08,2.75-.17,0,.28c6.29,15.73,12.53,31.32,18.73,46.83,6.18,15.53,12.44,31.12,18.84,46.85,2.68,5.62,5.82,9.8,9.46,12.6,3.65,2.8,7.43,4.21,11.34,4.21s7.7-1.41,11.39-4.21c3.69-2.8,6.87-6.98,9.53-12.6l26.27-66.09,26.65,66.09c2.66,5.62,5.82,9.8,9.46,12.6,3.65,2.8,7.41,4.21,11.25,4.21s7.63-1.41,11.28-4.21c3.62-2.8,6.73-6.98,9.33-12.6L207.11,10.53h-13.74Z"/>
        <path class="cls-1" d="M338.98,41.38c-2.68-6-6.35-11.25-11.07-15.8-4.61-4.61-10.05-8.21-16.27-10.78-6.22-2.57-12.86-3.87-19.98-3.87h-13.74c-7.18,0-13.87,1.3-20.05,3.87-6.17,2.57-11.63,6.17-16.33,10.78-4.63,4.54-8.26,9.8-10.92,15.8-2.68,6-4,12.46-4,19.4s1.32,13.42,4,19.47c2.66,6.04,6.29,11.28,10.92,15.73,4.7,4.52,10.16,8.12,16.33,10.78,6.18,2.66,12.86,4,20.05,4h13.74c7.11,0,13.76-1.34,19.98-4,6.22-2.66,11.66-6.26,16.27-10.78,4.72-4.45,8.39-9.69,11.07-15.73,2.66-6.04,3.98-12.53,3.98-19.47s-1.32-13.4-3.98-19.4ZM326.92,75.21c-2.1,4.52-4.83,8.48-8.19,11.84-3.47,3.38-7.49,6.04-12.13,7.99-4.61,1.97-9.58,2.93-14.9,2.93h-13.69c-5.32,0-10.29-.96-14.92-2.93-4.61-1.95-8.64-4.61-12.1-7.99-3.47-3.36-6.22-7.32-8.32-11.84-2.08-4.52-3.11-9.35-3.11-14.5s1.03-9.98,3.11-14.5c2.1-4.52,4.86-8.48,8.32-11.84,3.47-3.38,7.49-6.04,12.1-7.99,4.63-1.95,9.6-2.93,14.92-2.93h13.69c5.32,0,10.29.98,14.9,2.93,4.63,1.95,8.66,4.61,12.13,7.99,3.36,3.36,6.09,7.32,8.19,11.84,2.08,4.52,3.11,9.35,3.11,14.5s-1.03,9.98-3.11,14.5Z"/>
        <path class="cls-1" d="M464.56,10.39l-31.59,78.78c-1.52,2.84-3.4,4.97-5.66,6.4-2.28,1.41-4.63,2.13-7.07,2.13s-4.81-.72-7.14-2.13c-2.3-1.43-4.21-3.56-5.73-6.4l-30.79-78.51h-14.12l33.18,83.3c2.66,5.62,6.22,9.8,10.65,12.6,4.45,2.8,9.08,4.21,13.94,4.21s9.49-1.41,13.92-4.21c4.45-2.8,8.01-6.98,10.67-12.6l33.58-83.56h-13.85Z"/>
        <path class="cls-1" d="M577.61,23.46v-12.8h-2.73c-4.86,0-9.98.02-15.39.07-5.41.04-11.01.07-16.74.07h-16.71c-5.44,0-10.56-.02-15.39-.07-4.85-.04-9.11-.07-12.73-.07v100.1h79.69v-13.07h-66.78v-33.72h66.78v-12.8h-66.78v-27.72h66.78Z"/>
        <path class="cls-1" d="M685.07,10.66v81.04l-75.04-81.04h-12.91v100.1h12.91V29.72l75.04,81.04h12.93V10.66h-12.93Z"/>
      </g>
      <g>
        <path class="cls-2" d="M62.45,165.2l14.55-15.65h-5.99l-12.52,13.47h-6.32v-13.47h-4.41v30.75l4.41,3.42v-16.34h6.32c2.91,3.19,5.82,6.33,8.72,9.44,2.9,3.11,5.79,6.22,8.71,9.35.55.61,1.12,1.15,1.7,1.61.6.48,1.21.84,1.85,1.1.63.25,1.32.35,2.04.29.74-.06,1.5-.32,2.31-.78l-21.37-23.19Z"/>
        <path class="cls-2" d="M175.89,149.55v17.15c0,1.73-.32,3.36-.98,4.87-.64,1.5-1.55,2.82-2.68,3.95-1.13,1.12-2.47,2.01-3.99,2.65-1.52.66-3.13.98-4.83.98s-3.36-.32-4.86-.98c-1.5-.64-2.82-1.53-3.95-2.65-1.15-1.13-2.04-2.45-2.7-3.95-.64-1.52-.98-3.14-.98-4.87l-.09-17.11h-4.32v17.11c0,2.33.46,4.52,1.35,6.58.9,2.04,2.12,3.85,3.65,5.38,1.53,1.55,3.33,2.77,5.36,3.66,2.05.9,4.25,1.35,6.59,1.35s4.49-.44,6.53-1.35c2.05-.89,3.83-2.12,5.35-3.66,1.52-1.53,2.73-3.34,3.63-5.38.89-2.05,1.33-4.25,1.33-6.58v-17.15h-4.41Z"/>
        <path class="cls-2" d="M247.5,179.35v-29.8h-4.51v34.17h25.52v-4.37h-21.01Z"/>
        <path class="cls-2" d="M331.21,149.55v4.46l14.98-.09v29.8h4.4v-29.8h15.07v-4.37h-34.44Z"/>
        <path class="cls-2" d="M457.73,149.55v17.15c0,1.73-.34,3.36-.98,4.87-.66,1.5-1.55,2.82-2.7,3.95-1.13,1.12-2.47,2.01-3.99,2.65-1.52.66-3.13.98-4.83.98s-3.34-.32-4.84-.98c-1.52-.64-2.84-1.53-3.97-2.65-1.13-1.13-2.04-2.45-2.7-3.95-.64-1.52-.97-3.14-.97-4.87l-.09-17.11h-4.32v17.11c0,2.33.44,4.52,1.33,6.58.9,2.04,2.12,3.85,3.65,5.38,1.53,1.55,3.33,2.77,5.38,3.66,2.04.9,4.25,1.35,6.58,1.35s4.49-.44,6.55-1.35c2.04-.89,3.83-2.12,5.35-3.66,1.52-1.53,2.71-3.34,3.62-5.38.89-2.05,1.35-4.25,1.35-6.58v-17.15h-4.41Z"/>
        <path class="cls-2" d="M549.5,171.44c2.15-.46,3.89-1.32,5.24-2.58,1.35-1.26,2.31-2.7,2.87-4.32.57-1.62.75-3.31.57-5.07-.17-1.76-.72-3.37-1.61-4.84-.89-1.47-2.13-2.68-3.71-3.63-1.58-.97-3.46-1.44-5.69-1.44h-4.52c-1.78,0-3.68.02-5.7.03-2.04.02-4.09.02-6.18.02h-5.93v34.12h4.41v-12.11h14.47c3.72,4.11,7.42,8.12,11.1,12.06l6.04.05-11.36-12.28ZM529.25,167.26v-13.24c1.24,0,2.68,0,4.32-.02,1.64-.02,3.3-.03,4.95-.03s3.28,0,4.81-.02c1.52-.02,2.81-.03,3.83-.03,1.49,0,2.73.32,3.71.98.98.66,1.73,1.47,2.24,2.48.49,1,.75,2.07.75,3.2s-.26,2.21-.75,3.2c-.51,1-1.26,1.82-2.24,2.48-.98.64-2.22.98-3.71.98h-17.92Z"/>
        <path class="cls-2" d="M650.25,153.92v-4.37h-.44c-1.64,0-3.4.02-5.24.03-1.85.02-3.76.02-5.72.02h-5.7c-1.85,0-3.6,0-5.26-.02-1.66-.02-3.1-.03-4.34-.03v34.17h26.7v-4.46h-22.29v-11.51h22.29v-4.37h-22.29v-9.46h22.29Z"/>
      </g>
    </g>
  </g>
</svg>